<svg height="200px" width="200px" version="1.1" id="Layer_1" xmlns="http://www.w3.org/2000/svg" xmlns:xlink="http://www.w3.org/1999/xlink" viewBox="0 0 511.999 511.999" xml:space="preserve" fill="#000000"><g id="SVGRepo_bgCarrier" stroke-width="0"></g><g id="SVGRepo_tracerCarrier" stroke-linecap="round" stroke-linejoin="round"></g><g id="SVGRepo_iconCarrier"> <path style="fill:#aeea00;" d="M423.968,360.911l-34.616-19.642l-12.157,12.157l19.642,34.616c2.904,6.775,11.251,9.372,17.4,5.306 c5.972-3.949,11.088-9.065,15.038-15.038C433.34,372.162,430.744,363.814,423.968,360.911z"></path> <circle style="fill:#aeea00;" cx="383.029" cy="347.108" r="17.842"></circle> <path style="fill:#aeea00;" d="M348.717,60.659C279.378-8.68,166.681-8.404,97.002,61.274S27.047,243.65,96.387,312.989 c73.881,73.881,187.725,89.275,278.886,38.712c0.026-0.014,0.051-0.029,0.077-0.043c5.055-2.806,9.23-6.981,12.036-12.036 c0.014-0.026,0.029-0.051,0.043-0.077C437.992,248.384,422.598,134.54,348.717,60.659z"></path> <path style="fill:#aeea00;" d="M96.387,312.989c26.226,26.226,57.487,45.078,90.982,56.228 c46.005,15.314,95.796-11.192,107.004-58.366c0.115-0.483,0.222-0.956,0.321-1.419c16.371-76.028-5.773-157.171-62.966-214.364 c-24.903-24.903-55.398-40.82-87.485-47.771c-16.967-3.676-34.751,1.526-47.045,13.783c-0.065,0.065-0.13,0.13-0.195,0.195 C27.322,130.953,27.047,243.65,96.387,312.989z"></path> <ellipse style="fill:#ffffff;" cx="112.99" cy="196.684" rx="47.58" ry="71.37"></ellipse> <circle cx="181.172" cy="238.483" r="17.842"></circle> <circle cx="265.281" cy="154.373" r="17.842"></circle> <path style="fill:#ffffff;" d="M206.407,263.711c-13.914,13.914-36.552,13.914-50.466,0c-3.484-3.484-3.484-9.133,0-12.617 s9.132-3.484,12.617,0c6.957,6.957,18.277,6.956,25.233,0c3.484-3.484,9.132-3.484,12.617,0S209.891,260.227,206.407,263.711z"></path> <path style="fill:#aeea00;" d="M290.517,179.6c-3.484,3.484-9.132,3.484-12.617,0s-3.484-9.132,0-12.617 c6.957-6.957,6.957-18.275,0-25.233c-3.484-3.484-3.484-9.132,0-12.617s9.132-3.484,12.617,0 C304.431,143.048,304.431,165.687,290.517,179.6z"></path> <path d="M442.485,397.58c-2.868-4.007-8.442-4.928-12.447-2.06c-4.006,2.868-4.929,8.441-2.059,12.447 c19.978,27.903,30.537,60.792,30.537,95.111c0,4.927,3.993,8.921,8.921,8.921s8.921-3.994,8.921-8.921 C476.357,465.012,464.645,428.531,442.485,397.58z"></path> <path d="M436.419,383.133c3.379-5.111,4.306-11.423,2.542-17.317c-1.781-5.947-6.072-10.761-11.776-13.205 c-4.532-1.944-9.773,0.158-11.714,4.685c-1.941,4.53,0.157,9.773,4.685,11.714c1.134,0.486,1.559,1.413,1.71,1.922 c0.174,0.583,0.259,1.465-0.331,2.356c-3.306,4.999-7.518,9.21-12.517,12.517c-0.891,0.589-1.775,0.507-2.356,0.331 c-0.51-0.152-1.437-0.577-1.922-1.71l-4.126-9.629c1.961-1.261,3.805-2.733,5.493-4.421c6.177-6.178,9.58-14.393,9.58-23.13 c0-8.738-3.402-16.952-9.579-23.127c-0.238-0.239-0.479-0.473-0.724-0.704c18.108-41.145,24.395-86.001,18.195-131.012 c-7.264-52.734-30.97-100.472-68.552-138.054C282.317-18.357,163.741-18.08,90.694,54.966 C55.315,90.345,35.763,137.32,35.641,187.237c-0.123,49.934,19.21,96.835,54.437,132.06c46.325,46.324,108.463,70.763,171.517,70.76 c32.97-0.001,66.201-6.686,97.532-20.419c0.236,0.251,0.475,0.497,0.718,0.741c6.178,6.178,14.394,9.581,23.13,9.581 c0.145,0,0.288-0.008,0.433-0.011l4.932,11.508c2.444,5.702,7.258,9.995,13.207,11.775c1.959,0.586,3.967,0.875,5.961,0.875 c3.999,0,7.943-1.163,11.354-3.419C425.874,396.053,431.781,390.146,436.419,383.133z M369.871,354.286 c-2.253-4.185-7.39-5.868-11.683-3.83c-85.86,40.776-188.533,23.184-255.492-43.775c-31.845-31.845-49.323-74.248-49.212-119.401 c0.111-45.168,17.807-87.678,49.828-119.698c33.157-33.157,76.673-49.748,120.114-49.748c43.145,0,86.22,16.37,118.982,49.132 c70.446,70.446,85.751,180.754,37.219,268.251c-2.39,4.308-0.834,9.74,3.475,12.128c4.308,2.39,9.738,0.833,12.128-3.475 c0.47-0.846,0.934-1.695,1.393-2.546c0.801,1.845,1.22,3.85,1.22,5.923c0,3.972-1.546,7.706-4.355,10.514 c-2.807,2.808-6.542,4.355-10.514,4.355c-3.971,0-7.706-1.546-10.513-4.355C371.428,356.727,370.555,355.558,369.871,354.286z"></path> </g></svg>